<svg width="44" height="24" viewBox="0 0 44 24" fill="none" xmlns="http://www.w3.org/2000/svg">
<path fill-rule="evenodd" clip-rule="evenodd" d="M37.3865 15.6782L43.5272 9.5584C43.8625 9.20211 43.8625 8.6572 43.5272 8.32187C43.1919 7.98654 42.626 7.98654 42.2907 8.32187L36.7787 13.8338L31.2667 8.32187C30.9104 7.98654 30.3655 7.98654 30.0302 8.32187C29.6949 8.6572 29.6949 9.20211 30.0302 9.5584L36.1499 15.6782C36.5062 16.0135 37.0511 16.0135 37.3865 15.6782Z" fill="#888888"/>
<path d="M7.92 6.62003C7.97124 6.74025 7.99842 6.86935 8 7.00003C7.99632 7.2648 7.89273 7.5184 7.71 7.71003C7.6128 7.79836 7.50118 7.86939 7.38 7.92003C7.26132 7.97601 7.13118 8.00341 7 8.00003C6.73523 7.99635 6.48163 7.89276 6.29 7.71003C6.19732 7.61659 6.12399 7.50577 6.07423 7.38394C6.02446 7.2621 5.99924 7.13164 6 7.00003C6.00158 6.86935 6.02876 6.74025 6.08 6.62003C6.13064 6.49885 6.20167 6.38723 6.29 6.29003C6.43062 6.15127 6.6092 6.05728 6.80319 6.0199C6.99718 5.98253 7.19789 6.00345 7.38 6.08003C7.50118 6.13067 7.6128 6.2017 7.71 6.29003C7.79833 6.38723 7.86936 6.49885 7.92 6.62003ZM17 6.00003H11C10.7348 6.00003 10.4804 6.10539 10.2929 6.29292C10.1054 6.48046 10 6.73481 10 7.00003C10 7.26525 10.1054 7.5196 10.2929 7.70714C10.4804 7.89467 10.7348 8.00003 11 8.00003H17C17.2652 8.00003 17.5196 7.89467 17.7071 7.70714C17.8946 7.5196 18 7.26525 18 7.00003C18 6.73481 17.8946 6.48046 17.7071 6.29292C17.5196 6.10539 17.2652 6.00003 17 6.00003ZM7.38 11.08C7.19789 11.0035 6.99718 10.9825 6.80319 11.0199C6.6092 11.0573 6.43062 11.1513 6.29 11.29C6.1974 11.3839 6.12581 11.4964 6.08 11.62C6.02876 11.7403 6.00158 11.8694 6 12C5.99924 12.1316 6.02446 12.2621 6.07423 12.3839C6.12399 12.5058 6.19732 12.6166 6.29 12.71C6.48163 12.8928 6.73523 12.9963 7 13C7.13068 12.9984 7.25978 12.9713 7.38 12.92C7.50118 12.8694 7.6128 12.7984 7.71 12.71L7.83 12.56C7.86785 12.5043 7.89811 12.4438 7.92 12.38C7.95579 12.3245 7.98278 12.2638 8 12.2C8.00491 12.1335 8.00491 12.0666 8 12C7.99632 11.7353 7.89273 11.4817 7.71 11.29C7.6128 11.2017 7.50118 11.1307 7.38 11.08ZM17 11H11C10.7348 11 10.4804 11.1054 10.2929 11.2929C10.1054 11.4805 10 11.7348 10 12C10 12.2652 10.1054 12.5196 10.2929 12.7071C10.4804 12.8947 10.7348 13 11 13H17C17.2652 13 17.5196 12.8947 17.7071 12.7071C17.8946 12.5196 18 12.2652 18 12C18 11.7348 17.8946 11.4805 17.7071 11.2929C17.5196 11.1054 17.2652 11 17 11ZM7.71 16.29C7.6128 16.2017 7.50118 16.1307 7.38 16.08C7.19789 16.0034 6.99718 15.9825 6.80319 16.0199C6.6092 16.0573 6.43062 16.1513 6.29 16.29C6.19896 16.3851 6.12759 16.4973 6.08 16.62C6.02709 16.7397 5.99977 16.8692 5.99977 17C5.99977 17.1309 6.02709 17.2603 6.08 17.38C6.12759 17.5028 6.19896 17.6149 6.29 17.71C6.48163 17.8928 6.73523 17.9963 7 18C7.13068 17.9984 7.25978 17.9713 7.38 17.92C7.50118 17.8694 7.6128 17.7984 7.71 17.71C7.80104 17.6149 7.87241 17.5028 7.92 17.38C7.9729 17.2603 8.00023 17.1309 8.00023 17C8.00023 16.8692 7.9729 16.7397 7.92 16.62C7.87241 16.4973 7.80104 16.3851 7.71 16.29ZM17 16H11C10.7348 16 10.4804 16.1054 10.2929 16.2929C10.1054 16.4805 10 16.7348 10 17C10 17.2652 10.1054 17.5196 10.2929 17.7071C10.4804 17.8947 10.7348 18 11 18H17C17.2652 18 17.5196 17.8947 17.7071 17.7071C17.8946 17.5196 18 17.2652 18 17C18 16.7348 17.8946 16.4805 17.7071 16.2929C17.5196 16.1054 17.2652 16 17 16ZM22 5.00003V19C22 19.7957 21.6839 20.5587 21.1213 21.1213C20.5587 21.684 19.7956 22 19 22H5C4.20435 22 3.44129 21.684 2.87868 21.1213C2.31607 20.5587 2 19.7957 2 19V5.00003C2 4.20438 2.31607 3.44132 2.87868 2.87871C3.44129 2.3161 4.20435 2.00003 5 2.00003H19C19.7956 2.00003 20.5587 2.3161 21.1213 2.87871C21.6839 3.44132 22 4.20438 22 5.00003ZM20 5.00003C20 4.73481 19.8946 4.48046 19.7071 4.29292C19.5196 4.10539 19.2652 4.00003 19 4.00003H5C4.73478 4.00003 4.48043 4.10539 4.29289 4.29292C4.10536 4.48046 4 4.73481 4 5.00003V19C4 19.2652 4.10536 19.5196 4.29289 19.7071C4.48043 19.8947 4.73478 20 5 20H19C19.2652 20 19.5196 19.8947 19.7071 19.7071C19.8946 19.5196 20 19.2652 20 19V5.00003Z" fill="#3C3C3C"/>
</svg>
