<svg width="17" height="17" viewBox="0 0 17 17" fill="none" xmlns="http://www.w3.org/2000/svg">
<path d="M7.6683 7.80508V2.09079C7.6683 1.45961 8.17997 0.947937 8.81116 0.947937C9.44234 0.947937 9.95401 1.45961 9.95401 2.09079V7.80508H15.6683C16.2995 7.80508 16.8112 8.31675 16.8112 8.94794C16.8112 9.57912 16.2995 10.0908 15.6683 10.0908H9.95401V15.8051C9.95401 16.4363 9.44234 16.9479 8.81116 16.9479C8.17997 16.9479 7.6683 16.4363 7.6683 15.8051V10.0908H1.95401C1.32283 10.0908 0.811157 9.57912 0.811157 8.94794C0.811157 8.31675 1.32283 7.80508 1.95401 7.80508H7.6683Z" fill="#334BFA"/>
</svg>
